<svg width="49" height="49" viewBox="0 0 49 49" fill="none" xmlns="http://www.w3.org/2000/svg">
<circle cx="24.5" cy="24.5" r="24.5" fill="#364C59"/>
<path d="M24.2524 33.3172C22.948 33.4908 18.8875 33.5899 17.6135 33.3172C16.3394 33.0446 15.1642 32.558 14.1765 31.8939C13.1888 31.2299 12.4144 30.4059 11.9116 29.484C11.4088 28.5621 11.1908 27.5664 11.274 26.5718C11.3573 25.5773 11.7395 24.61 12.392 23.7428C13.0445 22.8756 13.9501 22.1311 15.0407 21.5655C16.1313 20.9999 17.3783 20.628 18.6878 20.4777C19.9973 20.3274 22.2907 20.1824 23.5558 20.4777L24.2524 23.3591C23.5474 23.1946 20.0018 23.2753 19.2722 23.3591C18.5425 23.4428 17.8476 23.6501 17.2399 23.9653C16.6322 24.2804 16.1275 24.6953 15.7639 25.1785C15.4004 25.6617 15.1874 26.2008 15.141 26.7549C15.0946 27.3091 15.2161 27.864 15.4963 28.3777C15.7764 28.8914 16.2079 29.3506 16.7583 29.7206C17.3087 30.0906 17.9636 30.3618 18.6735 30.5137C19.3835 30.6656 24.7664 30.6104 25.4932 30.5137L24.2524 33.3172Z" fill="#FFFF00"/>
<path d="M25.5478 19.7417C27.182 19.5624 30.1693 19.8298 31.7656 20.1115C33.3618 20.3933 34.8342 20.8963 36.0717 21.5825C37.3091 22.2688 38.2794 23.1204 38.9093 24.0732C39.5392 25.026 39.8123 26.0551 39.7081 27.0829C39.6038 28.1108 39.1249 29.1105 38.3074 30.0068C37.49 30.903 36.3553 31.6724 34.9889 32.257C33.6226 32.8415 32.0602 33.2259 30.4196 33.3813C28.779 33.5366 27.1329 33.6864 25.5478 33.3813L26.8566 30.4033C27.7398 30.5733 28.7732 30.4899 29.6874 30.4033C30.6016 30.3168 31.4722 30.1026 32.2336 29.7768C32.995 29.4511 33.6273 29.0224 34.0828 28.5229C34.5383 28.0235 34.8052 27.4664 34.8633 26.8937C34.9214 26.3209 34.7692 25.7475 34.4182 25.2166C34.0672 24.6856 33.5265 24.2111 32.837 23.8287C32.1474 23.4463 31.327 23.166 30.4375 23.009C29.548 22.852 26.4584 22.9091 25.5478 23.009V19.7417Z" fill="white"/>
<path d="M17.0996 15.528C16.0969 15.4089 15.4091 14.4596 15.6083 13.4697C15.785 12.5918 16.6026 11.994 17.4927 12.092L21.5756 12.5413C23.9353 12.801 25.9413 14.3813 26.7463 16.6146L27.3816 18.3771C27.463 18.6031 27.52 18.8371 27.5516 19.0752L27.8482 21.3099C27.9587 22.1424 27.311 22.8818 26.4712 22.8818C25.8546 22.8818 25.3118 22.4754 25.1382 21.8837L24.3827 19.3085C23.8451 17.4763 22.2661 16.1415 20.3699 15.9163L17.0996 15.528Z" fill="white"/>
<path d="M27.23 29.348C28.1244 29.3577 29.0098 29.29 29.8303 29.1492C30.6508 29.0084 31.3885 28.7975 31.9967 28.53C32.6049 28.2625 33.0704 27.9441 33.3638 27.595C33.6571 27.2458 33.7718 26.8736 33.7008 26.5018C33.6297 26.13 33.3744 25.7667 32.9509 25.4349C32.5274 25.1031 31.9451 24.8101 31.2407 24.5743C30.5363 24.3386 29.7251 24.1652 28.8586 24.0652C27.9921 23.9653 27.0891 23.9409 26.2066 23.9935L27.2586 26.6577L27.23 29.348Z" fill="black"/>
<ellipse cx="26.6796" cy="35.883" rx="1.18637" ry="1.1982" fill="black"/>
<ellipse cx="31.4251" cy="35.883" rx="1.18637" ry="1.1982" fill="black"/>
</svg>
