<svg width="27" height="24" viewBox="0 0 27 24" fill="none" xmlns="http://www.w3.org/2000/svg">
<path d="M12.3234 20.4099C11.0865 20.5754 7.23605 20.6699 6.02787 20.4099C4.81969 20.1499 3.7053 19.6857 2.7687 19.0523C1.8321 18.419 1.09774 17.633 0.620978 16.7537C0.144217 15.8744 -0.0625022 14.9246 0.0164068 13.976C0.0953157 13.0275 0.457794 12.1048 1.07651 11.2777C1.69523 10.4505 2.55404 9.74043 3.5882 9.20096C4.62236 8.66149 5.80489 8.3067 7.04662 8.16335C8.28835 8.02 10.4631 7.88177 11.6628 8.16335L12.3234 10.9117C11.6549 10.7548 8.2927 10.8318 7.60077 10.9117C6.90883 10.9916 6.24989 11.1893 5.67363 11.4899C5.09736 11.7905 4.6188 12.1862 4.27403 12.6471C3.92926 13.108 3.72728 13.6221 3.68331 14.1507C3.63934 14.6793 3.75453 15.2085 4.02019 15.6985C4.28586 16.1885 4.69507 16.6265 5.21697 16.9794C5.73888 17.3323 6.35985 17.5909 7.03309 17.7358C7.70632 17.8807 12.8108 17.8281 13.5 17.7358L12.3234 20.4099Z" fill="#FFFF00"/>
<path d="M13.5518 7.46146C15.1014 7.29039 17.9342 7.54543 19.4479 7.81418C20.9616 8.08293 22.3578 8.56266 23.5312 9.21722C24.7047 9.87177 25.6247 10.6841 26.222 11.5929C26.8194 12.5016 27.0784 13.4832 26.9795 14.4636C26.8806 15.4439 26.4265 16.3975 25.6513 17.2524C24.8761 18.1072 23.8002 18.8411 22.5045 19.3987C21.2088 19.9562 19.7273 20.3229 18.1715 20.471C16.6158 20.6192 15.0548 20.762 13.5518 20.471L14.7928 17.6306C15.6304 17.7928 16.6103 17.7132 17.4772 17.6306C18.3441 17.5481 19.1697 17.3437 19.8917 17.0331C20.6137 16.7224 21.2133 16.3134 21.6452 15.8371C22.0772 15.3607 22.3302 14.8294 22.3853 14.2831C22.4404 13.7368 22.2961 13.1898 21.9632 12.6834C21.6304 12.177 21.1177 11.7244 20.4638 11.3596C19.81 10.9949 19.0319 10.7276 18.1885 10.5778C17.345 10.4281 14.4153 10.4825 13.5518 10.5778V7.46146Z" fill="white"/>
<path d="M5.54752 3.44314C4.59242 3.32906 3.93721 2.42517 4.12592 1.48197V1.48197C4.2937 0.643408 5.07461 0.0721953 5.92459 0.166288L9.78597 0.59374C12.0226 0.84133 13.9225 2.34189 14.6816 4.46025L15.2911 6.16101C15.368 6.37578 15.4219 6.59813 15.4517 6.82431L15.7345 8.96718C15.8386 9.75614 15.2246 10.4565 14.4288 10.4565V10.4565C13.8435 10.4565 13.3284 10.0702 13.1645 9.50829L12.4439 7.03802C11.936 5.29688 10.4376 4.02723 8.63665 3.81212L5.54752 3.44314Z" fill="white"/>
<path d="M15.147 16.6241C15.995 16.6333 16.8347 16.5687 17.6127 16.4344C18.3908 16.3001 19.0903 16.099 19.6671 15.8439C20.2438 15.5887 20.6852 15.285 20.9634 14.952C21.2415 14.619 21.3503 14.264 21.2829 13.9093C21.2156 13.5547 20.9734 13.2082 20.5719 12.8917C20.1703 12.5753 19.6181 12.2958 18.9501 12.0709C18.2822 11.846 17.513 11.6807 16.6913 11.5853C15.8696 11.49 15.0133 11.4667 14.1765 11.5169L15.174 14.058L15.147 16.6241Z" fill="black"/>
<ellipse cx="14.625" cy="22.8571" rx="1.125" ry="1.14286" fill="black"/>
<ellipse cx="19.125" cy="22.8571" rx="1.125" ry="1.14286" fill="black"/>
</svg>
